<svg width="28" height="28" viewBox="0 0 28 28" fill="none" xmlns="http://www.w3.org/2000/svg">
<circle opacity="0.12" cx="14" cy="14" r="13.5" fill="#222222" stroke="#222222"/>
<g clip-path="url(#clip0_260_6313)">
<path d="M19 6H9.99998C8.89694 6 7.99997 6.89697 7.99997 8.00001V9.00002H7V11H8.00001V13H7V15.0001H8.00001V17.0001H7V19.0001H8.00001V20.0001C8.00001 21.1031 8.89698 22.0001 10 22.0001H19C20.1031 22.0001 21 21.1031 21 20.0001V8.00001C21 6.89697 20.103 6 19 6V6ZM14.5 9.99999C15.603 9.99999 16.5 10.897 16.5 12C16.5 13.103 15.603 14 14.5 14C13.397 14 12.5 13.103 12.5 12C12.5 10.897 13.397 9.99999 14.5 9.99999ZM18 17H11V16C11 15.3071 11.4804 14.7051 12.2856 14.3892C13.5796 13.8804 15.4199 13.8804 16.7148 14.3892C17.5195 14.7051 18 15.3071 18 16V17Z" fill="black"/>
</g>
<defs>
<clipPath id="clip0_260_6313">
<rect width="16" height="16" fill="white" transform="translate(6 6)"/>
</clipPath>
</defs>
</svg>
