<svg width="32" height="32" viewBox="0 0 32 32" fill="none" xmlns="http://www.w3.org/2000/svg">
<circle cx="16" cy="16" r="16" fill="#E8AA0D" fill-opacity="0.32"/>
<path d="M18.3592 23.5292C18.1784 23.5298 17.9997 23.4921 17.8364 23.419C17.673 23.3458 17.5291 23.239 17.4152 23.1064L11.5694 16.2499C11.3914 16.0454 11.2941 15.7889 11.2941 15.5243C11.2941 15.2596 11.3914 15.0031 11.5694 14.7986L17.6209 7.94212C17.8263 7.70875 18.1215 7.56199 18.4416 7.53413C18.7616 7.50627 19.0803 7.59959 19.3274 7.79356C19.5746 7.98753 19.73 8.26626 19.7595 8.56843C19.789 8.8706 19.6902 9.17147 19.4848 9.40484L14.0747 15.53L19.3032 21.6551C19.4512 21.8228 19.5452 22.0271 19.5741 22.2437C19.603 22.4603 19.5656 22.6802 19.4663 22.8774C19.367 23.0745 19.2099 23.2407 19.0137 23.3562C18.8175 23.4717 18.5904 23.5318 18.3592 23.5292Z" fill="white"/>
</svg>
