<svg width="28" height="28" viewBox="0 0 28 28" fill="none" xmlns="http://www.w3.org/2000/svg">
<circle opacity="0.12" cx="14" cy="14" r="13.5" fill="#222222" stroke="#222222"/>
<g clip-path="url(#clip0_260_6268)">
<path d="M9.10033 7C7.94918 7 7.00369 7.95233 7.00369 9.10347V11.2001C7.00369 12.3513 7.94915 13.3022 9.10035 13.3022H11.197C12.3482 13.3022 13.3005 12.3513 13.3005 11.2001V9.10347C13.3005 7.95233 12.3482 7 11.197 7H9.10033ZM16.7967 7C15.6455 7 14.7001 7.95233 14.7001 9.10347V11.2001C14.7001 12.3513 15.6455 13.3022 16.7967 13.3022H18.9002C20.0514 13.3022 20.9969 12.3513 20.9969 11.2001V9.10347C20.9969 7.9523 20.0514 7 18.9002 7H16.7967ZM9.10033 14.7032C7.94915 14.7032 7.00366 15.6487 7.00366 16.7999V18.8979C7.00366 20.0491 7.94913 21 9.10033 21H11.197C12.3482 21 13.3005 20.049 13.3005 18.8979V16.7999C13.3005 15.6487 12.3482 14.7032 11.197 14.7032H9.10033ZM16.7967 14.7032C15.6455 14.7032 14.7001 15.6487 14.7001 16.7999V18.8979C14.7001 20.0491 15.6455 21 16.7967 21H18.9002C20.0514 21 20.9969 20.049 20.9969 18.8979V16.7999C20.9969 15.6487 20.0514 14.7032 18.9002 14.7032H16.7967Z" fill="black"/>
</g>
<defs>
<clipPath id="clip0_260_6268">
<rect width="14" height="14" fill="white" transform="translate(7 7)"/>
</clipPath>
</defs>
</svg>
