<svg width="78" height="78" viewBox="0 0 78 78" fill="none" xmlns="http://www.w3.org/2000/svg">
<circle cx="39" cy="39" r="37" stroke="#FF5000" stroke-width="4"/>
<path d="M55.5884 27.5122L55.5884 27.5122L55.5933 27.517C56.3062 28.2131 56.3062 29.3312 55.5933 30.0272L55.5933 30.0272L55.5888 30.0317L34.594 51.056C33.8983 51.7526 32.776 51.7526 32.0804 51.056L22.394 41.356C22.2289 41.1906 22.0979 40.9943 22.0085 40.7782C21.9191 40.5621 21.873 40.3304 21.873 40.0964C21.873 39.6239 22.0605 39.1708 22.394 38.8369C22.7274 38.503 23.1795 38.3155 23.6508 38.3155C24.122 38.3155 24.5741 38.503 24.9076 38.8369L32.9948 46.9355L33.3488 47.29L33.7026 46.9353L53.0754 27.5124L53.0756 27.5122C53.2405 27.3467 53.4364 27.2154 53.652 27.1259C53.8676 27.0363 54.0986 26.9902 54.332 26.9902C54.5654 26.9902 54.7964 27.0363 55.012 27.1259C55.2276 27.2154 55.4235 27.3467 55.5884 27.5122Z" fill="#FF5000" stroke="#FF5000"/>
</svg>
