<svg width="28" height="28" viewBox="0 0 28 28" fill="none" xmlns="http://www.w3.org/2000/svg">
<circle opacity="0.12" cx="14" cy="14" r="13.5" fill="#222222" stroke="#222222"/>
<g clip-path="url(#clip0_260_6294)">
<path d="M20.8751 18.4505L19.089 16.0432C18.4512 15.1835 17.1338 15.2945 16.6901 16.2235C16.3656 16.8642 15.5614 17.1277 14.9097 16.8781C13.4675 16.2818 11.7342 14.0354 11.5927 12.4075C11.4679 11.7003 12.0281 11.018 12.7353 10.8932C13.7531 10.7379 14.2412 9.50934 13.6033 8.64962L11.8173 6.24239C11.2959 5.62949 10.3973 5.49638 9.79551 5.9429L8.16203 7.15486C6.51747 8.4417 7.50205 12.6433 10.5001 16.684C13.4981 20.7247 17.2227 22.96 18.9421 21.6842L20.5756 20.4722C21.1885 19.9508 21.3216 19.0523 20.8751 18.4505Z" fill="black"/>
</g>
<defs>
<clipPath id="clip0_260_6294">
<rect width="15.1879" height="15.1879" fill="white" transform="translate(7.89307 5.25928) rotate(8.42626)"/>
</clipPath>
</defs>
</svg>
