<svg width="12" height="12" viewBox="0 0 12 12" fill="none" xmlns="http://www.w3.org/2000/svg">
<path d="M11.016 10.3849H0.459C0.205116 10.3849 0 10.59 0 10.8439V11.3603C0 11.4234 0.0516375 11.475 0.11475 11.475H11.3603C11.4234 11.475 11.475 11.4234 11.475 11.3603V10.8439C11.475 10.59 11.2699 10.3849 11.016 10.3849ZM2.08988 9.18C2.11857 9.18 2.14726 9.17713 2.17595 9.17283L4.58857 8.74969C4.61725 8.74395 4.64451 8.73104 4.66459 8.70953L10.7449 2.62921C10.7582 2.61594 10.7688 2.60018 10.7759 2.58283C10.7831 2.56547 10.7869 2.54687 10.7869 2.52809C10.7869 2.5093 10.7831 2.4907 10.7759 2.47335C10.7688 2.45599 10.7582 2.44023 10.7449 2.42696L8.36097 0.0415969C8.33372 0.0143438 8.29786 0 8.25913 0C8.2204 0 8.18454 0.0143438 8.15729 0.0415969L2.07697 6.12191C2.05546 6.14343 2.04255 6.16925 2.03681 6.19793L1.61367 8.61055C1.59972 8.68739 1.6047 8.76648 1.6282 8.84096C1.65169 8.91544 1.69298 8.98307 1.7485 9.038C1.84317 9.1298 1.96223 9.18 2.08988 9.18Z" fill="black"/>
</svg>
