<svg width="96" height="97" viewBox="0 0 96 97" fill="none" xmlns="http://www.w3.org/2000/svg">
<g clip-path="url(#clip0_260_5667)">
<path d="M0.854492 46.9631L48.8545 12.3662L95.8589 47.6779" fill="#DF4701"/>
<path d="M95.0052 46.8916H0.711914V78.4148H95.0052V46.8916Z" fill="#DF4701"/>
<path d="M82 10H13V80H82V10Z" fill="#F9F9F9"/>
<path d="M95.787 96.9999H0.142578V46.8916L47.2892 71.2667L95.787 46.8916V96.9999Z" fill="#FF5000"/>
<path d="M47.2892 71.2666L95.787 96.9998H0.142578L47.2892 71.2666Z" fill="#DF4701"/>
<path d="M47.2892 71.6241L0.142578 46.8916" stroke="#DF4701" stroke-width="1.0049" stroke-miterlimit="10"/>
<path d="M47.0762 71.6241L95.7873 46.8916" stroke="#DF4701" stroke-width="1.0049" stroke-miterlimit="10"/>
<path d="M64.8539 37.0275C64.8539 42.3171 62.0805 45.8197 58.1694 45.8197C56.0361 45.8197 54.4716 44.9619 54.1161 42.9604L54.045 42.2456C52.6228 44.39 50.4183 45.3908 48.0005 45.3908C43.7339 45.3908 39.8939 42.1026 39.8939 37.1704C39.8939 32.5241 42.9516 28.7356 47.5739 28.7356C50.6316 28.7356 52.765 30.6656 53.1205 31.3805V29.0931H56.8894V41.3878C56.8894 42.746 57.5294 43.3178 58.525 43.3178C60.2316 43.3178 61.7961 40.816 61.7961 37.1704C61.7961 30.1653 56.9605 24.8042 49.1383 24.8042C41.885 24.8042 36.0539 30.3082 36.0539 37.2419C36.0539 44.1041 41.5294 49.1078 48.6405 49.1078C50.7028 49.1078 53.405 48.4645 55.3961 47.0348L56.8183 49.6082C54.7561 51.1093 51.2716 52.0385 48.6405 52.0385C39.7516 52.0385 32.9961 45.7482 32.9961 37.2419C32.9961 28.5927 40.0361 21.9449 49.0672 21.9449C58.2405 21.8735 64.8539 28.2353 64.8539 37.0275ZM44.0183 36.956C44.0183 39.6723 45.7961 41.8882 48.4272 41.8882C51.2005 41.8882 52.9072 39.6723 52.9072 36.956C52.9072 34.3112 51.1294 32.1667 48.3561 32.1667C45.7961 32.2382 44.0183 34.3827 44.0183 36.956Z" fill="#464A4F"/>
</g>
<defs>
<clipPath id="clip0_260_5667">
<rect width="96" height="97" fill="white"/>
</clipPath>
</defs>
</svg>
