<svg width="28" height="28" viewBox="0 0 28 28" fill="none" xmlns="http://www.w3.org/2000/svg">
<circle opacity="0.12" cx="14" cy="14" r="13.5" fill="#222222" stroke="#222222"/>
<path d="M17.7384 21.0575L17.4869 22.0856C16.7324 22.3834 16.1297 22.6101 15.6809 22.7659C15.2316 22.9222 14.7096 23 14.1148 23C13.2014 23 12.4909 22.7762 11.9842 22.3318C11.4774 21.8856 11.224 21.3201 11.224 20.6342C11.224 20.3687 11.2424 20.0955 11.2806 19.8172C11.3192 19.5386 11.3805 19.2249 11.4644 18.8741L12.4073 15.5367C12.4912 15.2171 12.5625 14.9143 12.6196 14.628C12.6775 14.3434 12.7054 14.0815 12.7054 13.8459C12.7054 13.4196 12.6172 13.1215 12.4415 12.9539C12.2658 12.7868 11.9306 12.7019 11.4329 12.7019C11.1892 12.7019 10.9386 12.7409 10.6833 12.8164C10.4267 12.8923 10.2075 12.9655 10.0234 13.0336L10.2756 12.0047C10.8933 11.7532 11.4837 11.5378 12.0485 11.3591C12.6133 11.1798 13.147 11.0901 13.6518 11.0901C14.5589 11.0901 15.2589 11.3094 15.7504 11.7478C16.242 12.1866 16.4877 12.7555 16.4877 13.4564C16.4877 13.6014 16.4715 13.857 16.4369 14.2222C16.403 14.5883 16.3399 14.9237 16.2479 15.2287L15.309 18.5528C15.2321 18.8198 15.1629 19.125 15.1027 19.4685C15.0406 19.8097 15.0109 20.0704 15.0109 20.2452C15.0109 20.6866 15.1093 20.988 15.3066 21.1482C15.5054 21.3084 15.8477 21.3881 16.3339 21.3881C16.5622 21.3881 16.8219 21.3476 17.1105 21.268C17.3983 21.1885 17.6082 21.1186 17.7384 21.0575ZM17.9765 7.10205C17.9765 7.6812 17.7583 8.17582 17.3196 8.58251C16.8821 8.99066 16.3549 9.1949 15.7382 9.1949C15.1195 9.1949 14.591 8.99066 14.1485 8.58251C13.7068 8.17565 13.4854 7.6812 13.4854 7.10205C13.4854 6.52402 13.7068 6.0286 14.1485 5.61674C14.5902 5.20553 15.1196 5 15.7382 5C16.3547 5 16.8821 5.20601 17.3196 5.61674C17.7586 6.0286 17.9765 6.52418 17.9765 7.10205Z" fill="black"/>
</svg>
