<svg width="26" height="26" viewBox="0 0 26 26" fill="none" xmlns="http://www.w3.org/2000/svg">
<path d="M14.1608 1.23163L14.161 1.23176L24.7669 11.8373L24.7681 11.8385C24.7682 11.8386 24.7684 11.8388 24.7685 11.8389C25.4073 12.4795 25.4069 13.5221 24.7676 14.1622C24.4557 14.474 24.0453 14.6439 23.6052 14.6439H23.2132H22.4632V15.3939V23.1989C22.4632 24.3291 21.5424 25.25 20.4117 25.25H16.2623C16.2607 25.25 16.2597 25.2499 16.259 25.2497C16.2584 25.2496 16.2581 25.2495 16.2579 25.2494C16.2571 25.249 16.2556 25.2482 16.254 25.2466C16.2535 25.2461 16.2531 25.2456 16.2528 25.2452C16.252 25.2442 16.2515 25.2433 16.2512 25.2427C16.2512 25.2425 16.251 25.2422 16.2509 25.2416C16.2507 25.2409 16.2506 25.2399 16.2506 25.2383V19.1191C16.2506 18.0001 15.3415 17.0911 14.2225 17.0911H11.7751C10.6561 17.0911 9.74707 18.0001 9.74707 19.1191V25.2383C9.74707 25.2413 9.74661 25.2422 9.74646 25.2426C9.74629 25.243 9.74601 25.2435 9.74559 25.2441C9.74512 25.2449 9.74448 25.2457 9.74362 25.2465C9.742 25.2482 9.74049 25.249 9.73962 25.2494C9.73924 25.2495 9.73829 25.25 9.73535 25.25H5.58596C4.45525 25.25 3.53447 24.3291 3.53447 23.1989V15.3939V14.6439H2.78447H2.36175L2.36079 14.6438L2.34049 14.6419L2.32012 14.641C1.90658 14.6232 1.52254 14.4546 1.23011 14.162L1.22999 14.1619C0.591147 13.5231 0.589878 12.4819 1.22695 11.8411L1.23354 11.8344L1.23799 11.8299L11.8365 1.23155L11.3062 0.701218L11.8365 1.23155C12.1482 0.919904 12.5585 0.75 12.9988 0.75C13.4391 0.75 13.8493 0.920005 14.1608 1.23163Z" stroke="white" stroke-width="1.5"/>
</svg>
