<svg width="28" height="28" viewBox="0 0 28 28" fill="none" xmlns="http://www.w3.org/2000/svg">
<circle opacity="0.12" cx="14" cy="14" r="13.5" fill="#222222" stroke="#222222"/>
<path d="M14.9353 6.89521C14.6784 6.66434 14.3451 6.53662 13.9997 6.53662C13.6542 6.53662 13.321 6.66434 13.064 6.89521L7.93066 11.5077C7.78471 11.639 7.66799 11.7995 7.58808 11.9788C7.50816 12.158 7.46684 12.3521 7.4668 12.5484V19.1331C7.4668 19.5044 7.6143 19.8605 7.87685 20.123C8.1394 20.3856 8.49549 20.5331 8.8668 20.5331H10.7335C11.1048 20.5331 11.4609 20.3856 11.7234 20.123C11.986 19.8605 12.1335 19.5044 12.1335 19.1331V15.3997C12.1335 15.276 12.1826 15.1573 12.2701 15.0698C12.3577 14.9822 12.4764 14.9331 12.6001 14.9331H15.4001C15.5239 14.9331 15.6426 14.9822 15.7301 15.0698C15.8176 15.1573 15.8668 15.276 15.8668 15.3997V19.1331C15.8668 19.5044 16.0143 19.8605 16.2768 20.123C16.5394 20.3856 16.8955 20.5331 17.2668 20.5331H19.1335C19.5048 20.5331 19.8609 20.3856 20.1234 20.123C20.386 19.8605 20.5335 19.5044 20.5335 19.1331V12.5484C20.5334 12.3521 20.4921 12.158 20.4122 11.9788C20.3323 11.7995 20.2155 11.639 20.0696 11.5077L14.9363 6.89521H14.9353Z" fill="#222222"/>
</svg>
