<svg width="27" height="26" viewBox="0 0 27 26" fill="none" xmlns="http://www.w3.org/2000/svg">
<circle cx="13.1765" cy="13" r="13" fill="url(#paint0_linear_260_6346)"/>
<path fill-rule="evenodd" clip-rule="evenodd" d="M10.6543 6.91903C11.3067 6.889 11.5147 6.88232 13.1765 6.88232C14.8383 6.88232 15.0463 6.88955 15.6981 6.91903C16.3499 6.94851 16.7948 7.05251 17.1841 7.20322C17.5918 7.35728 17.9616 7.59809 18.2675 7.90953C18.5789 8.21486 18.8192 8.58414 18.9727 8.99236C19.124 9.38166 19.2274 9.82658 19.2574 10.4773C19.2875 11.1308 19.2941 11.3388 19.2941 13C19.2941 14.6617 19.2869 14.8697 19.2574 15.5221C19.228 16.1728 19.124 16.6177 18.9727 17.007C18.8192 17.4153 18.5785 17.7852 18.2675 18.091C17.9616 18.4024 17.5918 18.6427 17.1841 18.7962C16.7948 18.9474 16.3499 19.0509 15.6992 19.0809C15.0463 19.1109 14.8383 19.1176 13.1765 19.1176C11.5147 19.1176 11.3067 19.1104 10.6543 19.0809C10.0037 19.0514 9.55873 18.9474 9.16943 18.7962C8.76117 18.6426 8.39127 18.402 8.08549 18.091C7.77426 17.7855 7.53341 17.4157 7.37974 17.0076C7.22902 16.6183 7.12558 16.1734 7.09554 15.5227C7.06551 14.8692 7.05884 14.6612 7.05884 13C7.05884 11.3382 7.06607 11.1302 7.09554 10.4784C7.12502 9.82658 7.22902 9.38166 7.37974 8.99236C7.53364 8.58419 7.77467 8.21448 8.08605 7.90898C8.3914 7.59781 8.76092 7.35697 9.16887 7.20322C9.55817 7.05251 10.0031 6.94906 10.6538 6.91903H10.6543ZM15.6486 8.02021C15.0034 7.99073 14.8099 7.98461 13.1765 7.98461C11.5431 7.98461 11.3495 7.99073 10.7044 8.02021C10.1077 8.04746 9.78397 8.14701 9.56819 8.23099C9.28288 8.34222 9.07877 8.47402 8.86466 8.68814C8.66169 8.8856 8.50548 9.12599 8.4075 9.39167C8.32352 9.60746 8.22397 9.93114 8.19672 10.5279C8.16724 11.173 8.16113 11.3666 8.16113 13C8.16113 14.6334 8.16724 14.8269 8.19672 15.4721C8.22397 16.0688 8.32352 16.3925 8.4075 16.6083C8.50538 16.8736 8.66166 17.1144 8.86466 17.3118C9.06209 17.5148 9.3029 17.6711 9.56819 17.769C9.78397 17.8529 10.1077 17.9525 10.7044 17.9797C11.3495 18.0092 11.5425 18.0153 13.1765 18.0153C14.8105 18.0153 15.0034 18.0092 15.6486 17.9797C16.2453 17.9525 16.569 17.8529 16.7848 17.769C17.0701 17.6577 17.2742 17.5259 17.4883 17.3118C17.6913 17.1144 17.8476 16.8736 17.9455 16.6083C18.0294 16.3925 18.129 16.0688 18.1562 15.4721C18.1857 14.8269 18.1918 14.6334 18.1918 13C18.1918 11.3666 18.1857 11.173 18.1562 10.5279C18.129 9.93114 18.0294 9.60746 17.9455 9.39167C17.8342 9.10637 17.7024 8.90226 17.4883 8.68814C17.2908 8.48519 17.0505 8.32899 16.7848 8.23099C16.569 8.14701 16.2453 8.04746 15.6486 8.02021ZM12.3951 14.8859C12.8315 15.0675 13.3174 15.092 13.7699 14.9552C14.2223 14.8184 14.6132 14.5288 14.8759 14.1358C15.1385 13.7427 15.2565 13.2707 15.2098 12.8004C15.1631 12.33 14.9545 11.8904 14.6197 11.5568C14.4063 11.3435 14.1482 11.1801 13.8641 11.0786C13.5799 10.977 13.2768 10.9396 12.9765 10.9693C12.6763 10.9989 12.3863 11.0947 12.1275 11.2498C11.8687 11.405 11.6475 11.6156 11.4798 11.8665C11.3122 12.1173 11.2023 12.4023 11.1579 12.7007C11.1136 12.9992 11.1361 13.3038 11.2236 13.5926C11.3111 13.8813 11.4616 14.1471 11.6642 14.3707C11.8667 14.5944 12.1164 14.7703 12.3951 14.8859ZM10.953 10.7765C11.245 10.4845 11.5916 10.2529 11.9731 10.0948C12.3546 9.93682 12.7635 9.85549 13.1765 9.85549C13.5894 9.85549 13.9983 9.93682 14.3798 10.0948C14.7613 10.2529 15.108 10.4845 15.4 10.7765C15.692 11.0685 15.9236 11.4151 16.0816 11.7966C16.2396 12.1781 16.321 12.587 16.321 13C16.321 13.4129 16.2396 13.8218 16.0816 14.2033C15.9236 14.5848 15.692 14.9315 15.4 15.2235C14.8103 15.8132 14.0105 16.1445 13.1765 16.1445C12.3425 16.1445 11.5427 15.8132 10.953 15.2235C10.3633 14.6338 10.032 13.8339 10.032 13C10.032 12.166 10.3633 11.3662 10.953 10.7765ZM17.0184 10.3238C17.0907 10.2555 17.1487 10.1734 17.1887 10.0824C17.2288 9.99135 17.2502 9.89319 17.2516 9.79373C17.2531 9.69427 17.2346 9.59553 17.1972 9.50335C17.1598 9.41118 17.1043 9.32744 17.0339 9.25711C16.9636 9.18677 16.8798 9.13126 16.7877 9.09386C16.6955 9.05647 16.5968 9.03795 16.4973 9.0394C16.3978 9.04085 16.2997 9.06224 16.2086 9.1023C16.1176 9.14237 16.0355 9.2003 15.9672 9.27266C15.8345 9.41338 15.7618 9.6003 15.7646 9.79373C15.7675 9.98716 15.8456 10.1719 15.9823 10.3087C16.1191 10.4455 16.3039 10.5236 16.4973 10.5264C16.6907 10.5292 16.8776 10.4565 17.0184 10.3238Z" fill="white"/>
<defs>
<linearGradient id="paint0_linear_260_6346" x1="20.8236" y1="6.11765" x2="2.47063" y2="20.2647" gradientUnits="userSpaceOnUse">
<stop stop-color="#B600A8"/>
<stop offset="1" stop-color="#E5001B"/>
</linearGradient>
</defs>
</svg>
