<svg width="27" height="26" viewBox="0 0 27 26" fill="none" xmlns="http://www.w3.org/2000/svg">
    <circle cx="13.1765" cy="13" r="13" fill="#0A63BC" />
    <path fill-rule="evenodd" clip-rule="evenodd"
        d="M12.3685 11.1457H14.6406V12.2775C14.9679 11.6266 15.8073 11.0417 17.0681 11.0417C19.4852 11.0417 20.059 12.3374 20.059 14.7147V19.1176H17.612V15.2562C17.612 13.9023 17.2847 13.1388 16.4514 13.1388C15.2958 13.1388 14.8156 13.9617 14.8156 15.2555V19.1176H12.3685V11.1457ZM8.17244 19.0136H10.6195V11.0417H8.17244V19.0136ZM10.97 8.44232C10.9701 8.64743 10.9294 8.85052 10.8504 9.03977C10.7713 9.22902 10.6554 9.40066 10.5094 9.54472C10.2135 9.83875 9.81307 10.0033 9.39597 10.0023C8.97959 10.002 8.58006 9.83788 8.28378 9.54534C8.13831 9.40078 8.02279 9.22895 7.94385 9.03967C7.8649 8.8504 7.82408 8.6474 7.82373 8.44232C7.82373 8.02816 7.98891 7.63174 8.28439 7.33931C8.58041 7.04637 8.98011 6.88214 9.39658 6.88232C9.8138 6.88232 10.2139 7.04689 10.5094 7.33931C10.8042 7.63174 10.97 8.02816 10.97 8.44232Z"
        fill="white" />
</svg>
