<svg width="84" height="104" viewBox="0 0 84 104" fill="none" xmlns="http://www.w3.org/2000/svg">
<path d="M63.35 30.0917L63.6864 56.0659L71.8341 56.1792L71.5165 30.205C71.722 13.7635 58.6595 0.21006 42.4014 0.00241749C26.1247 -0.205225 12.7071 12.9895 12.5015 29.431L12.1465 56.67L20.2942 56.7832L20.6493 29.5443C20.7988 17.652 30.4975 8.10048 42.2706 8.25149C54.0624 8.40251 63.5182 18.1995 63.35 30.0917Z" fill="#464A4F"/>
<path d="M84 100.577C84 102.332 82.5798 103.767 80.8418 103.767H3.15818C1.42024 103.767 0 102.332 0 100.577V49.6101C0 47.8545 1.42024 46.4199 3.15818 46.4199H80.8231C82.5611 46.4199 83.9813 47.8545 83.9813 49.6101V100.577H84Z" fill="#FF5000"/>
<path d="M83.9997 100.577V69.355C58.3979 91.2141 21.5089 99.4254 0.597656 102.446C1.17697 103.238 2.09265 103.767 3.15783 103.767H80.8228C82.5794 103.767 83.9997 102.351 83.9997 100.577Z" fill="#F04D02"/>
<path d="M48.9422 66.448C48.9422 62.5783 45.8401 59.4448 42.0092 59.4448C38.1783 59.4448 35.0762 62.5783 35.0762 66.448C35.0762 68.751 36.1787 70.7897 37.898 72.0733L35.6929 87.9296H48.3629L46.1578 72.0733C47.821 70.8085 48.9422 68.7699 48.9422 66.448Z" fill="#464A4F"/>
<path d="M3.06445 52.4604V63.4277C3.34476 58.7652 5.56857 48.6284 19.4533 48.6284H6.858C4.76501 48.6284 3.06445 50.3462 3.06445 52.4604Z" fill="#FF7A3D"/>
<path d="M35.6553 87.9296C35.6553 87.9296 45.0551 85.2491 46.1202 72.0732L48.3254 87.9296H35.6553Z" fill="black"/>
</svg>
