<svg width="28" height="28" viewBox="0 0 28 28" fill="none" xmlns="http://www.w3.org/2000/svg">
<circle opacity="0.12" cx="14" cy="14" r="13.5" fill="#222222" stroke="#222222"/>
<g clip-path="url(#clip0_260_6336)">
<path d="M15.9999 14.667C15.6312 14.667 15.3333 14.9657 15.3333 15.3336V18.0004C15.3333 18.3677 15.0346 18.667 14.6665 18.667H12.6666V8.66709C12.6666 8.09776 12.3039 7.58909 11.7586 7.39977L11.5612 7.33373H14.6665C15.0346 7.33373 15.3333 7.63304 15.3333 8.00047V10.0004C15.3333 10.3684 15.6312 10.6671 15.9999 10.6671C16.3685 10.6671 16.6665 10.3684 16.6665 10.0004V8.00047C16.6665 6.89782 15.7692 6.00049 14.6665 6.00049H7.49998C7.47459 6.00049 7.45335 6.01184 7.4287 6.01514C7.39659 6.01245 7.36595 6.00049 7.33336 6.00049C6.59802 6.00049 6 6.59838 6 7.33373V19.3336C6 19.9029 6.36267 20.4116 6.90795 20.6009L10.92 21.9383C11.056 21.9803 11.1912 22.0003 11.3333 22.0003C12.0687 22.0003 12.6666 21.4023 12.6666 20.667V20.0003H14.6665C15.7692 20.0003 16.6665 19.103 16.6665 18.0004V15.3336C16.6665 14.9657 16.3685 14.667 15.9999 14.667Z" fill="black"/>
<path d="M21.8045 12.1956L19.1378 9.52901C18.9472 9.33834 18.6605 9.28096 18.4112 9.38423C18.1626 9.48763 17.9998 9.73091 17.9998 10.0003V12.0003H15.3332C14.9652 12.0003 14.6665 12.2989 14.6665 12.6669C14.6665 13.035 14.9652 13.3335 15.3332 13.3335H17.9998V15.3335C17.9998 15.6029 18.1626 15.8462 18.4112 15.9496C18.6605 16.0529 18.9472 15.9955 19.1378 15.8049L21.8045 13.1382C22.0651 12.8776 22.0651 12.4562 21.8045 12.1956Z" fill="black"/>
</g>
<defs>
<clipPath id="clip0_260_6336">
<rect width="16" height="16" fill="white" transform="translate(6 6)"/>
</clipPath>
</defs>
</svg>
