<svg width="28" height="28" viewBox="0 0 28 28" fill="none" xmlns="http://www.w3.org/2000/svg">
<circle opacity="0.12" cx="14" cy="14" r="13.5" fill="#222222" stroke="#222222"/>
<path d="M20.5385 17.3806C19.7054 16.4779 18.6943 15.7574 17.569 15.2647C16.4436 14.772 15.2285 14.5176 14 14.5176C12.7716 14.5176 11.5564 14.772 10.4311 15.2647C9.30577 15.7574 8.29468 16.4779 7.4615 17.3806C7.33286 17.5228 7.26091 17.7074 7.25928 17.8991V21.0102C7.262 21.2147 7.34515 21.4099 7.49072 21.5535C7.63628 21.6971 7.83256 21.7777 8.03706 21.7776H19.963C20.1693 21.7776 20.3671 21.6957 20.513 21.5498C20.6588 21.404 20.7408 21.2061 20.7408 20.9999V17.8888C20.7366 17.7006 20.6648 17.5202 20.5385 17.3806Z" fill="#222222"/>
<path d="M14 13.4814C16.0046 13.4814 17.6296 11.8564 17.6296 9.8518C17.6296 7.84721 16.0046 6.22217 14 6.22217C11.9954 6.22217 10.3704 7.84721 10.3704 9.8518C10.3704 11.8564 11.9954 13.4814 14 13.4814Z" fill="#222222"/>
</svg>
