<svg width="28" height="28" viewBox="0 0 28 28" fill="none" xmlns="http://www.w3.org/2000/svg">
<circle opacity="0.12" cx="14" cy="14" r="13.5" fill="#222222" stroke="#222222"/>
<path d="M20.7114 17.1099C20.6509 17.037 20.5914 16.9641 20.5331 16.8937C19.731 15.9236 19.2458 15.3381 19.2458 12.5917C19.2458 11.1698 18.9056 10.0031 18.2351 9.12811C17.7408 8.48171 17.0725 7.99134 16.1916 7.62895C16.1803 7.62264 16.1702 7.61437 16.1617 7.60452C15.8449 6.54358 14.9779 5.83301 14.0001 5.83301C13.0223 5.83301 12.1557 6.54358 11.8389 7.60342C11.8304 7.61291 11.8204 7.62092 11.8094 7.62712C9.75383 8.47332 8.75488 10.0968 8.75488 12.5906C8.75488 15.3381 8.27034 15.9236 7.46753 16.8926C7.4092 16.963 7.34977 17.0345 7.28925 17.1088C7.13292 17.2974 7.03387 17.5267 7.00382 17.7698C6.97378 18.0129 7.014 18.2595 7.11972 18.4804C7.34467 18.9544 7.82409 19.2486 8.37133 19.2486H19.6329C20.1776 19.2486 20.6538 18.9547 20.8795 18.483C20.9856 18.262 21.0262 18.0152 20.9964 17.7718C20.9667 17.5285 20.8677 17.2988 20.7114 17.1099Z" fill="#222222"/>
<path d="M14 22.1665C14.5268 22.1661 15.0437 22.0231 15.4958 21.7526C15.948 21.4822 16.3185 21.0945 16.5681 20.6305C16.5798 20.6083 16.5857 20.5834 16.5849 20.5582C16.5842 20.5331 16.577 20.5086 16.5641 20.487C16.5511 20.4655 16.5327 20.4477 16.5108 20.4353C16.4889 20.423 16.4642 20.4165 16.439 20.4165H11.5616C11.5364 20.4164 11.5117 20.4229 11.4897 20.4352C11.4678 20.4475 11.4494 20.4653 11.4363 20.4869C11.4233 20.5084 11.4161 20.533 11.4153 20.5581C11.4146 20.5833 11.4204 20.6083 11.4322 20.6305C11.6818 21.0944 12.0522 21.4821 12.5043 21.7525C12.9564 22.023 13.4732 22.166 14 22.1665Z" fill="#222222"/>
</svg>
