<svg width="28" height="28" viewBox="0 0 28 28" fill="none" xmlns="http://www.w3.org/2000/svg">
<circle opacity="0.12" cx="14" cy="14" r="13.5" fill="#222222" stroke="#222222"/>
<path d="M16.5 7H15.414C15.208 6.418 14.652 6 14 6C13.348 6 12.792 6.418 12.585 7H11.5C11.224 7 11 7.224 11 7.5V9.5C11 9.776 11.224 10 11.5 10H16.5C16.776 10 17 9.776 17 9.5V7.5C17 7.224 16.776 7 16.5 7Z" fill="black"/>
<path d="M19 8H18V9.5C18 10.327 17.327 11 16.5 11H11.5C10.673 11 10 10.327 10 9.5V8H9C8.449 8 8 8.449 8 9V21C8 21.561 8.439 22 9 22H19C19.561 22 20 21.561 20 21V9C20 8.439 19.561 8 19 8ZM13.854 16.854L11.854 18.854C11.756 18.951 11.628 19 11.5 19C11.372 19 11.244 18.951 11.146 18.854L10.146 17.854C9.951 17.659 9.951 17.342 10.146 17.147C10.341 16.952 10.658 16.952 10.853 17.147L11.5 17.793L13.146 16.147C13.341 15.952 13.658 15.952 13.853 16.147C14.048 16.342 14.049 16.658 13.854 16.854ZM13.854 12.854L11.854 14.854C11.756 14.951 11.628 15 11.5 15C11.372 15 11.244 14.951 11.146 14.854L10.146 13.854C9.951 13.659 9.951 13.342 10.146 13.147C10.341 12.952 10.658 12.952 10.853 13.147L11.5 13.793L13.146 12.147C13.341 11.952 13.658 11.952 13.853 12.147C14.048 12.342 14.049 12.658 13.854 12.854ZM17.5 18H15.5C15.224 18 15 17.776 15 17.5C15 17.224 15.224 17 15.5 17H17.5C17.776 17 18 17.224 18 17.5C18 17.776 17.776 18 17.5 18ZM17.5 14H15.5C15.224 14 15 13.776 15 13.5C15 13.224 15.224 13 15.5 13H17.5C17.776 13 18 13.224 18 13.5C18 13.776 17.776 14 17.5 14Z" fill="black"/>
</svg>
