<svg width="28" height="28" viewBox="0 0 28 28" fill="none" xmlns="http://www.w3.org/2000/svg">
<circle opacity="0.12" cx="14" cy="14" r="13.5" fill="#222222" stroke="#222222"/>
<path d="M15.6499 12.8178C15.504 12.672 15.3062 12.5901 15.1 12.5901C14.8937 12.5901 14.6959 12.672 14.5501 12.8178L14.0002 13.3669C13.8567 13.5155 13.685 13.634 13.4953 13.7156C13.3055 13.7971 13.1014 13.84 12.8948 13.8418C12.6883 13.8436 12.4834 13.8042 12.2923 13.726C12.1011 13.6478 11.9274 13.5323 11.7813 13.3862C11.6353 13.2402 11.5198 13.0665 11.4416 12.8753C11.3634 12.6841 11.324 12.4793 11.3258 12.2728C11.3276 12.0662 11.3705 11.8621 11.452 11.6723C11.5336 11.4825 11.6521 11.3109 11.8006 11.1674L16.1795 6.78695C17.2162 6.55115 18.3009 6.64819 19.2793 7.06428C20.2577 7.48038 21.08 8.19434 21.6293 9.10464C22.1786 10.0149 22.4269 11.0753 22.339 12.1348C22.251 13.1944 21.8313 14.1992 21.1394 15.0065L19.4999 16.6671L15.6499 12.8171V12.8178ZM7.12541 8.14184C7.93022 7.33713 8.98291 6.82738 10.1133 6.69499C11.2437 6.5626 12.3857 6.81532 13.3546 7.41228L10.7001 10.0676C10.1251 10.6414 9.79741 11.4173 9.78691 12.2295C9.77642 13.0417 10.084 13.8258 10.6439 14.4143C11.2038 15.0027 11.9717 15.3488 12.7834 15.3787C13.5951 15.4086 14.3863 15.1198 14.988 14.5741L15.1 14.4675L18.4001 17.7668L15.1 21.0669C14.8083 21.3586 14.4127 21.5224 14.0002 21.5224C13.5877 21.5224 13.1921 21.3586 12.9004 21.0669L7.12463 15.2912C6.17662 14.3431 5.64404 13.0572 5.64404 11.7165C5.64404 10.3758 6.17662 9.08993 7.12463 8.14184H7.12541Z" fill="#222222"/>
</svg>
