<svg width="28" height="28" viewBox="0 0 28 28" fill="none" xmlns="http://www.w3.org/2000/svg">
<circle opacity="0.12" cx="14" cy="14" r="13.5" fill="#222222" stroke="#222222"/>
<g clip-path="url(#clip0_262_6499)">
<path d="M14.1789 20.625C15.6484 18.7441 19 14.1855 19 11.625C19 8.51953 16.5365 6 13.5 6C10.4635 6 8 8.51953 8 11.625C8 14.1855 11.3516 18.7441 12.8211 20.625C13.1734 21.0732 13.8266 21.0732 14.1789 20.625ZM13.5 13.5C12.4888 13.5 11.6667 12.6592 11.6667 11.625C11.6667 10.5908 12.4888 9.75 13.5 9.75C14.5112 9.75 15.3333 10.5908 15.3333 11.625C15.3333 12.6592 14.5112 13.5 13.5 13.5Z" fill="black"/>
</g>
<defs>
<clipPath id="clip0_262_6499">
<rect width="11" height="15" fill="white" transform="translate(8 6)"/>
</clipPath>
</defs>
</svg>
