<svg width="77" height="113" viewBox="0 0 77 113" fill="none" xmlns="http://www.w3.org/2000/svg">
<path d="M52.4119 28.5471L56.5478 42.9017L62.9566 42.9017L59.6606 26.7121C55.9464 12.1235 41.1831 3.23297 26.7562 6.90183C12.3129 10.5751 3.57376 25.4232 7.28793 40.0118L13.4284 64.1844L20.6606 62.3539L14.5201 38.1813C11.8344 27.629 18.1481 16.884 28.5952 14.2278C39.059 11.5672 49.7426 17.9904 52.4119 28.5471Z" fill="#464A4F"/>
<path d="M76.9051 109.348C76.9051 110.956 75.6048 112.269 74.0136 112.269H2.89143C1.30029 112.269 0 110.956 0 109.348V62.6863C0 61.0791 1.30029 59.7656 2.89143 59.7656H73.9965C75.5877 59.7656 76.888 61.0791 76.888 62.6863V109.348H76.9051Z" fill="#FF5000"/>
<path d="M76.9045 109.348V80.7637C53.4651 100.776 19.6919 108.294 0.546875 111.059C1.07725 111.785 1.9156 112.269 2.89081 112.269H73.9959C75.6042 112.269 76.9045 110.973 76.9045 109.348Z" fill="#F04D02"/>
<path d="M44.8082 78.1026C44.8082 74.5598 41.9681 71.6909 38.4607 71.6909C34.9534 71.6909 32.1133 74.5598 32.1133 78.1026C32.1133 80.2111 33.1227 82.0775 34.6967 83.2527L32.6779 97.7698H44.2778L42.2589 83.2527C43.7816 82.0948 44.8082 80.2283 44.8082 78.1026Z" fill="#464A4F"/>
<path d="M2.80566 65.2964V75.3373C3.0623 71.0686 5.09827 61.7881 17.8103 61.7881H6.2788C4.36259 61.7881 2.80566 63.3608 2.80566 65.2964Z" fill="#FF7A3D"/>
<path d="M32.6436 97.7695C32.6436 97.7695 41.2494 95.3154 42.2246 83.2524L44.2435 97.7695H32.6436Z" fill="black"/>
</svg>
