<svg width="28" height="28" viewBox="0 0 28 28" fill="none" xmlns="http://www.w3.org/2000/svg">
<circle opacity="0.12" cx="14" cy="14" r="13.5" fill="#222222" stroke="#222222"/>
<g clip-path="url(#clip0_260_6319)">
<path d="M19.0145 6H9C8.22461 6 7.59375 6.63086 7.59375 7.40625V20.5938C7.59375 21.3691 8.22461 22 9 22H19.0146C19.79 22 20.4209 21.3691 20.4209 20.5938V7.40625C20.4208 6.63086 19.7899 6 19.0145 6ZM17.3677 16.9375H13.0599C12.801 16.9375 12.5912 16.7277 12.5912 16.4688C12.5912 16.2098 12.801 16 13.0599 16H17.3677C17.6266 16 17.8364 16.2098 17.8364 16.4688C17.8364 16.7277 17.6266 16.9375 17.3677 16.9375ZM17.8364 18.8438C17.8364 19.1027 17.6266 19.3125 17.3677 19.3125H13.0599C12.801 19.3125 12.5912 19.1027 12.5912 18.8438C12.5912 18.5848 12.801 18.375 13.0599 18.375H17.3677C17.6266 18.375 17.8364 18.5848 17.8364 18.8438ZM12.3735 10.7889C12.3666 10.7815 12.3599 10.7739 12.3534 10.7661C12.189 10.567 11.9406 10.2661 11.9407 9.83936C11.9407 9.14038 12.5094 8.57153 13.2084 8.57153C13.5021 8.57153 13.7823 8.67517 14.0044 8.854C14.2469 8.65576 14.5598 8.55127 14.8887 8.57227C15.5475 8.61438 16.0681 9.16541 16.074 9.82678C16.0778 10.2523 15.8533 10.5558 15.6537 10.7736C15.65 10.7777 15.6462 10.7819 15.6423 10.786L14.3486 12.1615C14.26 12.2557 14.1365 12.3091 14.0073 12.3091C14.0072 12.3091 14.0072 12.3091 14.0072 12.3091C13.8779 12.3091 13.7545 12.2557 13.6659 12.1617L12.3735 10.7889ZM17.3677 14.5625H13.0599C12.801 14.5625 12.5912 14.3527 12.5912 14.0938C12.5912 13.8348 12.801 13.625 13.0599 13.625H17.3677C17.6266 13.625 17.8364 13.8348 17.8364 14.0938C17.8364 14.3527 17.6266 14.5625 17.3677 14.5625ZM11.0986 17.2332C10.6765 17.2332 10.3344 16.8909 10.3344 16.4688C10.3344 16.0466 10.6765 15.7043 11.0986 15.7043C11.5209 15.7043 11.863 16.0466 11.863 16.4688C11.863 16.8909 11.5209 17.2332 11.0986 17.2332ZM11.863 18.8438C11.863 19.2659 11.5209 19.6082 11.0986 19.6082C10.6765 19.6082 10.3344 19.2659 10.3344 18.8438C10.3344 18.4216 10.6765 18.0793 11.0986 18.0793C11.5209 18.0793 11.863 18.4216 11.863 18.8438ZM11.0986 14.8582C10.6765 14.8582 10.3344 14.5159 10.3344 14.0938C10.3344 13.6716 10.6765 13.3293 11.0986 13.3293C11.5209 13.3293 11.863 13.6716 11.863 14.0938C11.863 14.5159 11.5209 14.8582 11.0986 14.8582Z" fill="black"/>
</g>
<defs>
<clipPath id="clip0_260_6319">
<rect width="16" height="16" fill="white" transform="translate(6 6)"/>
</clipPath>
</defs>
</svg>
