<svg width="27" height="26" viewBox="0 0 27 26" fill="none" xmlns="http://www.w3.org/2000/svg">
<circle cx="13.1765" cy="13" r="13" fill="#F70000"/>
<path d="M13.2155 9.17627H13.2835C13.9121 9.17856 17.0971 9.2015 17.9559 9.43245C18.2155 9.50293 18.4521 9.64031 18.642 9.83086C18.8318 10.0214 18.9684 10.2585 19.038 10.5183C19.1152 10.8089 19.1695 11.1936 19.2062 11.5904L19.2138 11.67L19.2307 11.8688L19.2368 11.9483C19.2865 12.6473 19.2926 13.3019 19.2934 13.4449V13.5022C19.2926 13.6506 19.2857 14.3495 19.2307 15.0775L19.2245 15.1578L19.2177 15.2373C19.1794 15.6747 19.1228 16.1091 19.038 16.4287C18.9686 16.6887 18.8321 16.9259 18.6422 17.1165C18.4523 17.307 18.2156 17.4444 17.9559 17.5146C17.0688 17.7532 13.6972 17.77 13.23 17.7708H13.1214C12.8851 17.7708 11.9078 17.7662 10.8831 17.731L10.7531 17.7264L10.6866 17.7234L10.5558 17.718L10.4251 17.7127C9.57625 17.6752 8.76796 17.6148 8.39554 17.5139C8.13592 17.4437 7.8993 17.3065 7.70939 17.116C7.51948 16.9256 7.38296 16.6886 7.31348 16.4287C7.2286 16.1099 7.17201 15.6747 7.13378 15.2373L7.12766 15.157L7.12154 15.0775C7.0838 14.5593 7.06289 14.0401 7.05884 13.5206L7.05884 13.4265C7.06037 13.2621 7.06648 12.6939 7.10778 12.0669L7.11313 11.9881L7.11543 11.9483L7.12154 11.8688L7.13837 11.67L7.14601 11.5904C7.18272 11.1936 7.23701 10.8082 7.31425 10.5183C7.3836 10.2584 7.52008 10.0212 7.71 9.83061C7.89991 9.64003 8.13659 9.50272 8.39631 9.43245C8.76872 9.33303 9.57701 9.27186 10.4258 9.23362L10.5558 9.22827L10.6874 9.22368L10.7531 9.22139L10.8839 9.21603C11.6117 9.19261 12.3397 9.17961 13.0679 9.17703H13.2155V9.17627ZM11.953 11.631V15.3153L15.1318 13.4739L11.953 11.631Z" fill="white"/>
</svg>
